<svg width="105" height="48" viewBox="0 0 105 48" fill="none" xmlns="http://www.w3.org/2000/svg">
<rect width="105" height="48" rx="14" fill="#EEF4FF"/>
<path d="M80.5705 29.1771L74.5705 23.8438C74.438 23.727 74.3573 23.5624 74.3461 23.3862C74.3348 23.2099 74.394 23.0364 74.5105 22.9038C74.6273 22.7713 74.7918 22.6906 74.9681 22.6793C75.1443 22.6681 75.3178 22.7272 75.4505 22.8438L81.0105 27.7837L86.5705 22.8438C86.7043 22.736 86.8745 22.684 87.0456 22.6987C87.2168 22.7134 87.3757 22.7936 87.4892 22.9225C87.6026 23.0515 87.662 23.2193 87.6548 23.3909C87.6476 23.5625 87.5744 23.7248 87.4505 23.8438L81.4505 29.1771C81.3288 29.284 81.1724 29.3429 81.0105 29.3429C80.8486 29.3429 80.6921 29.284 80.5705 29.1771Z" fill="#3F51B5"/>
<g clip-path="url(#clip0_6327_678)">
<path d="M16 26H36V31H16V26Z" fill="#1EB53A"/>
<path d="M16 16H36V21H16V16Z" fill="#0099B5"/>
<path d="M16 20.7998H36V26.1998H16V20.7998Z" fill="#CE1126"/>
<path d="M16 21.1001H36V25.9001H16V21.1001Z" fill="white"/>
<path d="M20.2 20.2001C21.1941 20.2001 22 19.3942 22 18.4001C22 17.406 21.1941 16.6001 20.2 16.6001C19.2058 16.6001 18.4 17.406 18.4 18.4001C18.4 19.3942 19.2058 20.2001 20.2 20.2001Z" fill="white"/>
<path d="M20.8 20.2001C21.7941 20.2001 22.6 19.3942 22.6 18.4001C22.6 17.406 21.7941 16.6001 20.8 16.6001C19.8059 16.6001 19 17.406 19 18.4001C19 19.3942 19.8059 20.2001 20.8 20.2001Z" fill="#0099B5"/>
<path d="M24.1594 19.4805L24.0453 19.8225L24.2194 19.8825" fill="white"/>
<path d="M24.1594 19.4805L24.0453 19.8225L24.2194 19.8825" fill="white"/>
<path d="M24.1594 19.4805L24.0453 19.8225L24.2194 19.8825" fill="white"/>
<path d="M24.1594 19.4805L24.0453 19.8225L24.2194 19.8825" fill="white"/>
<path d="M24.1594 19.4805L24.0453 19.8225L24.2194 19.8825" fill="white"/>
<path d="M24.1594 19.4805L24.0453 19.8225L24.2194 19.8825" fill="white"/>
<path d="M24.1594 19.4805L24.0453 19.8225L24.2194 19.8825" fill="white"/>
<path d="M24.1594 19.4805L24.0453 19.8225L24.2194 19.8825" fill="white"/>
<path d="M24.1594 19.4805L24.0453 19.8225L24.2194 19.8825" fill="white"/>
<path d="M24.1594 19.4805L24.0453 19.8225L24.2194 19.8825" fill="white"/>
<path d="M24.1594 19.4805L24.0453 19.8225L24.2194 19.8825" fill="white"/>
<path d="M24.1594 19.4805L24.0453 19.8225L24.2194 19.8825" fill="white"/>
<path d="M24.1594 19.4805L24.0453 19.8225L24.2194 19.8825" fill="white"/>
<path d="M24.1594 19.4805L24.0453 19.8225L24.2194 19.8825" fill="white"/>
<path d="M24.1594 19.4805L24.0453 19.8225L24.2194 19.8825" fill="white"/>
<path d="M24.1594 19.4805L24.0453 19.8225L24.2194 19.8825" fill="white"/>
<path d="M24.1594 19.4805L24.0453 19.8225L24.2194 19.8825" fill="white"/>
<path d="M24.1594 19.4805L24.0453 19.8225L24.2194 19.8825" fill="white"/>
<path d="M24.1594 19.4805L24.0453 19.8225L24.2194 19.8825" fill="white"/>
<path d="M24.1594 19.4805L24.0453 19.8225L24.2194 19.8825" fill="white"/>
<path d="M24.1594 19.4805L24.0453 19.8225L24.2194 19.8825" fill="white"/>
<path d="M24.1594 19.4805L24.0453 19.8225L24.2194 19.8825" fill="white"/>
<path d="M24.1594 19.4805L24.0453 19.8225L24.2194 19.8825" fill="white"/>
<path d="M24.1594 19.4805L24.0453 19.8225L24.2194 19.8825" fill="white"/>
<path d="M24.1594 19.4805L24.0453 19.8225L24.2194 19.8825" fill="white"/>
<path d="M24.1594 19.4805L24.0453 19.8225L24.2194 19.8825" fill="white"/>
<path d="M24.1594 19.4805L24.0453 19.8225L24.2194 19.8825" fill="white"/>
<path d="M24.1594 19.4805L24.0453 19.8225L24.2194 19.8825" fill="white"/>
<path d="M24.1594 19.4805L24.0453 19.8225L24.2194 19.8825" fill="white"/>
<path d="M24.1594 19.4805L24.0453 19.8225L24.2194 19.8825" fill="white"/>
<path d="M24.1594 19.4805L24.0453 19.8225L24.2194 19.8825" fill="white"/>
<path d="M24.1594 19.4805L24.0453 19.8225L24.2194 19.8825" fill="white"/>
<path d="M24.1594 19.4805L24.0453 19.8225L24.2194 19.8825" fill="white"/>
<path d="M24.1594 19.4805L24.0453 19.8225L24.2194 19.8825" fill="white"/>
<path d="M24.1594 19.4805L24.0453 19.8225L24.2194 19.8825" fill="white"/>
<path d="M24.1594 19.4805L24.0453 19.8225L24.2194 19.8825" fill="white"/>
<path d="M24.1594 19.4805L24.0453 19.8225L24.2194 19.8825" fill="white"/>
<path d="M24.1594 19.4805L24.0453 19.8225L24.2194 19.8825" fill="white"/>
<path d="M24.1594 19.4805L24.0453 19.8225L24.2194 19.8825" fill="white"/>
<path d="M24.1594 19.4805L24.0453 19.8225L24.2194 19.8825" fill="white"/>
<path d="M24.1594 19.4805L24.0453 19.8225L24.2194 19.8825" fill="white"/>
<path d="M24.1594 19.4805L24.0453 19.8225L24.2194 19.8825" fill="white"/>
<path d="M24.1594 19.4805L24.0453 19.8225L24.2194 19.8825" fill="white"/>
<path d="M24.1594 19.4805L24.0453 19.8225L24.2194 19.8825" fill="white"/>
<path d="M24.1594 19.4805L24.0453 19.8225L24.2194 19.8825" fill="white"/>
<path d="M24.1594 19.4805L24.0453 19.8225L24.2194 19.8825" fill="white"/>
<path d="M24.1594 19.4805L24.0453 19.8225L24.2194 19.8825" fill="white"/>
<path d="M24.1594 19.4805L24.0453 19.8225L24.2194 19.8825" fill="white"/>
<path d="M24.1594 19.4805L24.0453 19.8225L24.2194 19.8825" fill="white"/>
<path d="M24.1594 19.4805L24.0453 19.8225L24.2194 19.8825" fill="white"/>
<path d="M24.1594 19.4805L24.0453 19.8225L24.2194 19.8825" fill="white"/>
<path d="M24.1594 19.4805L24.0453 19.8225L24.2194 19.8825" fill="white"/>
<path d="M24.1594 19.4805L24.0453 19.8225L24.2194 19.8825" fill="white"/>
<path d="M24.1594 19.4805L24.0453 19.8225L24.2194 19.8825" fill="white"/>
<path d="M24.1594 19.4805L24.0453 19.8225L24.2194 19.8825" fill="white"/>
<path d="M24.1594 19.4805L24.0453 19.8225L24.2194 19.8825" fill="white"/>
<path d="M24.1594 19.4805L24.0453 19.8225L24.2194 19.8825" fill="white"/>
<path d="M24.1594 19.4805L24.0453 19.8225L24.2194 19.8825" fill="white"/>
<path d="M24.1594 19.4805L24.0453 19.8225L24.2194 19.8825" fill="white"/>
<path d="M24.1594 19.4805L24.0453 19.8225L24.2194 19.8825" fill="white"/>
</g>
<path d="M54.264 14.816C54.2107 15.3707 54.056 15.8613 53.8 16.288C53.544 16.704 53.144 17.0293 52.6 17.264C52.056 17.4987 51.3253 17.616 50.408 17.616C49.4693 17.616 48.7333 17.504 48.2 17.28C47.6773 17.0453 47.304 16.72 47.08 16.304C46.856 15.888 46.7227 15.392 46.68 14.816H48.808C48.8613 15.4027 49.0107 15.792 49.256 15.984C49.5013 16.176 49.9013 16.272 50.456 16.272C50.9147 16.272 51.288 16.1707 51.576 15.968C51.8747 15.7547 52.0507 15.3707 52.104 14.816H54.264ZM52.072 26.656C51.752 27.3813 51.4107 28.0107 51.048 28.544C50.696 29.0667 50.2427 29.4667 49.688 29.744C49.1333 30.0213 48.408 30.16 47.512 30.16C47.2347 30.16 46.9307 30.1387 46.6 30.096C46.2693 30.0533 45.9653 29.9947 45.688 29.92V27.84C45.944 27.9467 46.2267 28.0213 46.536 28.064C46.8453 28.1067 47.1333 28.128 47.4 28.128C47.752 28.128 48.0347 28.0693 48.248 27.952C48.472 27.8347 48.648 27.6747 48.776 27.472C48.9147 27.2587 49.0267 27.0293 49.112 26.784L45.16 18.576H47.72L49.848 23.52C49.9013 23.6267 49.9653 23.7653 50.04 23.936C50.1147 24.1067 50.1893 24.2827 50.264 24.464C50.3387 24.6453 50.3973 24.8053 50.44 24.944H50.52C50.5627 24.816 50.616 24.6613 50.68 24.48C50.7547 24.288 50.8293 24.096 50.904 23.904C50.9893 23.7013 51.064 23.5253 51.128 23.376L53.112 18.576H55.608L52.072 26.656ZM60.0414 21.104C60.6707 21.104 61.2574 21.1893 61.8014 21.36C62.356 21.52 62.7987 21.7707 63.1294 22.112C63.4707 22.4533 63.6414 22.8907 63.6414 23.424C63.6414 23.9467 63.4814 24.3627 63.1614 24.672C62.852 24.9813 62.4307 25.2053 61.8974 25.344V25.424C62.2707 25.5093 62.6067 25.632 62.9054 25.792C63.204 25.9413 63.4387 26.1493 63.6094 26.416C63.7907 26.672 63.8814 27.0187 63.8814 27.456C63.8814 27.936 63.7267 28.384 63.4174 28.8C63.1187 29.2053 62.6494 29.536 62.0094 29.792C61.38 30.0373 60.5694 30.16 59.5774 30.16C59.108 30.16 58.6654 30.1387 58.2494 30.096C57.8334 30.0533 57.4547 29.9947 57.1134 29.92C56.772 29.8347 56.4734 29.7333 56.2174 29.616V27.648C56.58 27.8187 57.0227 27.9733 57.5454 28.112C58.0787 28.2507 58.644 28.32 59.2414 28.32C59.6787 28.32 60.068 28.288 60.4094 28.224C60.7614 28.16 61.0387 28.0533 61.2414 27.904C61.4547 27.7547 61.5614 27.5573 61.5614 27.312C61.5614 27.0773 61.4707 26.8853 61.2894 26.736C61.108 26.576 60.836 26.4587 60.4734 26.384C60.1107 26.3093 59.6467 26.272 59.0814 26.272H58.1534V24.624H59.0334C59.8227 24.624 60.4307 24.56 60.8574 24.432C61.2947 24.304 61.5134 24.064 61.5134 23.712C61.5134 23.4347 61.3747 23.2267 61.0974 23.088C60.82 22.9387 60.3667 22.864 59.7374 22.864C59.3214 22.864 58.868 22.912 58.3774 23.008C57.8867 23.104 57.4227 23.2427 56.9854 23.424L56.2814 21.76C56.7827 21.568 57.332 21.4133 57.9294 21.296C58.5267 21.168 59.2307 21.104 60.0414 21.104Z" fill="#3F51B5"/>
<defs>
<clipPath id="clip0_6327_678">
<rect x="16" y="16" width="20" height="15" rx="2" fill="white"/>
</clipPath>
</defs>
</svg>
